<?xml version="1.0" encoding="UTF-8"?>
<svg id="Layer_1" data-name="Layer 1" xmlns="http://www.w3.org/2000/svg" viewBox="0 0 475.55 475.55">
  <defs>
    <style>
      .cls-1, .cls-2 {
        fill: #2e3761;
      }

      .cls-1, .cls-3 {
        stroke-width: 0px;
      }

      .cls-2 {
        font-family: BigCaslon-Medium, 'Big Caslon';
        font-size: 151.24px;
        font-weight: 500;
      }

      .cls-3 {
        fill: #fff;
      }
    </style>
  </defs>
  <g>
    <path class="cls-3" d="M237.77,470.55c-62.18,0-120.63-24.21-164.6-68.18S5,299.95,5,237.77,29.21,117.14,73.18,73.18,175.6,5,237.77,5s120.63,24.21,164.6,68.18,68.18,102.42,68.18,164.6-24.21,120.63-68.18,164.6-102.42,68.18-164.6,68.18Z"/>
    <path class="cls-1" d="M237.77,10c30.75,0,60.58,6.02,88.66,17.9,27.12,11.47,51.48,27.9,72.4,48.82,20.92,20.92,37.35,45.28,48.82,72.4,11.87,28.07,17.9,57.9,17.9,88.66s-6.02,60.58-17.9,88.66c-11.47,27.12-27.9,51.48-48.82,72.4-20.92,20.92-45.28,37.35-72.4,48.82-28.07,11.87-57.9,17.9-88.66,17.9s-60.58-6.02-88.66-17.9c-27.12-11.47-51.48-27.9-72.4-48.82-20.92-20.92-37.35-45.28-48.82-72.4-11.87-28.07-17.9-57.9-17.9-88.66s6.02-60.58,17.9-88.66c11.47-27.12,27.9-51.48,48.82-72.4,20.92-20.92,45.28-37.35,72.4-48.82,28.07-11.87,57.9-17.9,88.66-17.9M237.77,0C106.45,0,0,106.45,0,237.77s106.45,237.77,237.77,237.77,237.77-106.45,237.77-237.77S369.09,0,237.77,0h0Z"/>
  </g>
  <text class="cls-2" transform="translate(79.2 280.43)"><tspan x="0" y="0">SVG</tspan></text>
</svg>